<svg xmlns="http://www.w3.org/2000/svg" viewBox="0 0 369.08 91.21"><defs><style>.cls-1{fill:#fff;}</style></defs><title>Steam White Logo</title><g id="Layer_2" data-name="Layer 2"><g id="Layer_1-2" data-name="Layer 1"><path class="cls-1" d="M45.45,0A45.6,45.6,0,0,0,0,42l24.44,10.1a12.89,12.89,0,0,1,7.27-2.24l.72,0L43.3,34.07v-.22a17.2,17.2,0,1,1,17.2,17.2h-.39L44.6,62.11c0,.2,0,.4,0,.61a12.91,12.91,0,0,1-25.57,2.54L1.57,58A45.6,45.6,0,1,0,45.45,0Z"/><path class="cls-1" d="M28.58,69.2,23,66.88a9.68,9.68,0,1,0,5.3-13.24L34.07,56A7.13,7.13,0,1,1,28.58,69.2Z"/><path class="cls-1" d="M72,33.85A11.47,11.47,0,1,0,60.5,45.31,11.48,11.48,0,0,0,72,33.85Zm-20,0a8.61,8.61,0,1,1,8.6,8.61A8.61,8.61,0,0,1,51.91,33.83Z"/><polygon class="cls-1" points="305.7 62.83 293.04 29.5 296.87 29.5 308.06 59.63 318.9 29.5 322.77 29.5 310.18 62.83 305.7 62.83"/><path class="cls-1" d="M342.65,49.65l-.81,0h-7.79V62.83h-3.52V29.5H341.6c8.72,0,11.5,4.39,11.5,9.5,0,4.7-2.18,8.64-6.93,10.08l8.44,13.74h-4Zm-.36-3.1c4.7,0,7.09-3.15,7.09-7.12,0-4.38-2.2-6.86-8.24-6.86h-7.09v14Z"/><path class="cls-1" d="M137.75,32.19l-3,5.21a14.9,14.9,0,0,0-8.08-2.55c-3.09,0-5,1.27-5,3.57,0,2.78,3.39,3.42,8.44,5.23,5.42,1.92,8.53,4.17,8.53,9.14,0,6.79-5.34,10.61-13,10.61a23.59,23.59,0,0,1-11.72-3.08l2.16-5.78a20.46,20.46,0,0,0,9.2,2.37c4,0,6-1.49,6-3.7,0-2.53-2.93-3.29-7.67-4.86-5.41-1.8-9.15-4.17-9.15-9.67,0-6.19,5-9.75,12.1-9.75a19.11,19.11,0,0,1,11.2,3.26"/><polygon class="cls-1" points="161.42 35.48 161.42 62.82 154.44 62.82 154.44 35.48 144.31 35.48 144.31 29.5 171.52 29.5 171.52 35.48 161.42 35.48"/><polygon class="cls-1" points="185.73 35.47 185.73 42.98 199.09 42.98 199.09 48.96 185.73 48.96 185.73 56.78 201.23 56.78 201.23 62.83 178.75 62.83 178.75 29.5 201.23 29.5 201.23 35.47 185.73 35.47"/><path class="cls-1" d="M216.8,56.35l-2.2,6.48h-7.32l12.5-33.33h7l12.85,33.33h-7.56l-2.26-6.48Zm6.45-18.9L218.7,50.79h9.2Z"/><polygon class="cls-1" points="274.96 42.38 265.84 61.85 261.91 61.85 252.93 42.55 252.93 62.83 246.25 62.83 246.25 29.5 252.92 29.5 264.12 53.55 274.92 29.5 281.65 29.5 281.65 62.83 274.96 62.83 274.96 42.38"/><polygon class="cls-1" points="359.32 30.24 359.32 35.9 358.47 35.9 358.47 30.24 356.37 30.24 356.37 29.5 361.42 29.5 361.42 30.24 359.32 30.24"/><polygon class="cls-1" points="369.08 35.9 368.25 35.9 368.25 31.17 366.07 35.83 365.6 35.83 363.43 31.17 363.43 35.9 362.6 35.9 362.6 29.5 363.45 29.5 365.88 34.74 368.22 29.5 369.08 29.5 369.08 35.9"/></g></g></svg>